<svg width="20" height="20" viewBox="0 0 20 20" fill="none" xmlns="http://www.w3.org/2000/svg">
<g clip-path="url(#clip0)">
<path d="M10.0032 4.86502C7.16742 4.86502 4.87158 7.16335 4.87158 9.99669C4.87158 12.8325 7.16992 15.1284 10.0032 15.1284C12.8391 15.1284 15.1349 12.83 15.1349 9.99669C15.1349 7.16085 12.8366 4.86502 10.0032 4.86502ZM10.0032 13.3275C8.16242 13.3275 6.67242 11.8367 6.67242 9.99669C6.67242 8.15669 8.16325 6.66585 10.0032 6.66585C11.8432 6.66585 13.3341 8.15669 13.3341 9.99669C13.3349 11.8367 11.8441 13.3275 10.0032 13.3275Z" fill="white"/>
<path d="M14.1233 0.0636157C12.2833 -0.0222177 7.72578 -0.018051 5.88411 0.0636157C4.26578 0.139449 2.83828 0.530282 1.68745 1.68112C-0.235888 3.60445 0.00994524 6.19612 0.00994524 9.99695C0.00994524 13.887 -0.206721 16.4186 1.68745 18.3128C3.61828 20.2428 6.24744 19.9903 10.0033 19.9903C13.8566 19.9903 15.1866 19.9928 16.5491 19.4653C18.4016 18.7461 19.7999 17.0903 19.9366 14.1161C20.0233 12.2753 20.0183 7.71862 19.9366 5.87695C19.7716 2.36612 17.8874 0.236949 14.1233 0.0636157ZM17.0358 17.0403C15.7749 18.3011 14.0258 18.1886 9.97911 18.1886C5.81245 18.1886 4.14161 18.2503 2.92245 17.0278C1.51828 15.6303 1.77245 13.3861 1.77245 9.98362C1.77245 5.37945 1.29995 2.06362 5.92078 1.82695C6.98245 1.78945 7.29495 1.77695 9.96745 1.77695L10.0049 1.80195C14.4458 1.80195 17.9299 1.33695 18.1391 5.95695C18.1866 7.01112 18.1974 7.32778 18.1974 9.99612C18.1966 14.1144 18.2749 15.7953 17.0358 17.0403Z" fill="white"/>
<path d="M15.3383 5.86165C16.0006 5.86165 16.5375 5.32476 16.5375 4.66248C16.5375 4.0002 16.0006 3.46332 15.3383 3.46332C14.676 3.46332 14.1392 4.0002 14.1392 4.66248C14.1392 5.32476 14.676 5.86165 15.3383 5.86165Z" fill="white"/>
</g>
<defs>
<clipPath id="clip0">
<rect width="20" height="20" fill="white"/>
</clipPath>
</defs>
</svg>
