<svg width="113" height="30" viewBox="0 0 113 30" fill="none" xmlns="http://www.w3.org/2000/svg">
<path fill-rule="evenodd" clip-rule="evenodd" d="M8.62554 0.203807C9.21763 0.331567 10.0865 0.61846 10.5563 0.841162L11.4103 1.24631L10.9884 2.41493C10.7562 3.05765 10.5069 3.65083 10.4341 3.73319C10.3614 3.81533 9.70976 3.637 8.986 3.33669C6.64423 2.36477 3.9103 2.69336 3.59109 3.9852C3.2924 5.19406 3.85158 5.57631 7.21032 6.45824C9.40396 7.03429 10.4961 7.53191 11.1618 8.25905C12.0141 9.18969 12.2626 10.6345 11.8307 12.149C10.958 15.2088 5.83614 16.4022 1.32856 14.5958C-0.183174 13.9901 -0.24474 13.8571 0.351623 12.4875C0.878699 11.2768 1.11074 11.1335 1.7833 11.6033C3.25074 12.6276 6.9039 12.9909 7.93205 12.2146C8.27768 11.9537 8.50626 11.5651 8.54507 11.1721C8.62858 10.3269 7.96496 9.82064 6.2031 9.38452C2.08809 8.36616 0.72712 7.54037 0.261001 5.77898C-0.413795 3.22937 1.18044 0.884917 4.05721 0.196999C5.16683 -0.0684272 7.37835 -0.065127 8.62554 0.203807ZM82.9099 0.186058C85.234 0.730531 87.0644 2.17448 88.0754 4.26094C88.696 5.54143 88.7433 5.78538 88.7433 7.71147C88.7433 9.63406 88.6954 9.88318 88.0809 11.1507C86.8488 13.693 84.4849 15.2063 81.4445 15.3991C76.7971 15.6936 73.2149 12.7802 72.852 8.41116C72.5277 4.50676 74.7252 1.31711 78.4603 0.270681C79.6034 -0.0494398 81.7322 -0.0898943 82.9099 0.186058ZM17.7476 1.05561C18.0377 1.53775 19.2617 3.63019 20.4677 5.7053C21.6736 7.78041 22.7095 9.42828 22.7696 9.36739C22.8296 9.3063 24.0426 7.23718 25.4656 4.76888L28.0524 0.281206L29.494 0.220524L30.9356 0.159842V7.70239V15.2449H29.3101H27.6846L27.6832 10.859L27.6815 6.4731L25.6005 10.0279L23.5192 13.5826L22.667 13.5882L21.8148 13.5938L20.0255 10.5808C17.2957 5.98394 17.5397 5.94658 17.5318 10.9622L17.5251 15.2449H16.0011H14.4772V7.71147V0.178008L15.8488 0.178424L17.2203 0.178833L17.7476 1.05561ZM37.8441 7.71147V15.2449H36.2186H34.5931V7.71147V0.178008H36.2186H37.8441V7.71147ZM50.8668 0.822379C52.956 1.81762 53.8844 3.28303 53.8917 5.59818C53.8974 7.39527 53.3601 8.59671 52.0922 9.62126C51.5757 10.0388 51.1224 10.3992 51.0848 10.4225C51.0472 10.4456 51.71 11.4836 52.5579 12.7292C53.4057 13.9746 54.0994 15.0503 54.0994 15.1192C54.0994 15.1884 53.2994 15.2443 52.3214 15.2437L50.5435 15.2425L49.237 13.2774C48.5183 12.1965 47.8179 11.2173 47.6806 11.1015C47.543 10.9857 46.8052 10.9187 46.0408 10.9523L44.651 11.0138L44.5931 13.1294L44.5352 15.2449H42.866H41.1968V7.69723V0.149733L45.4638 0.215366C49.5763 0.278729 49.7718 0.300816 50.8668 0.822379ZM60.5183 1.46799C61.0643 2.17758 62.6551 4.18787 64.0532 5.93543L66.5956 9.1127L66.6504 4.64545L66.7051 0.178008H68.4283H70.1514V7.71147V15.2449H68.6443C67.8155 15.2449 67.107 15.1609 67.0696 15.0582C67.0324 14.9554 65.4475 12.9542 63.5477 10.6111L60.0935 6.35091L60.0386 10.7979L59.984 15.2449H58.3623H56.7408V7.71147V0.178008H58.1331H59.5256L60.5183 1.46799ZM92.9087 0.382754C92.9087 0.495446 93.4198 1.81886 94.0442 3.3239C94.6688 4.82894 95.6059 7.10219 96.1269 8.37566C96.6478 9.64912 97.1343 10.6939 97.2078 10.6976C97.2814 10.7013 97.9097 9.33437 98.6042 7.65988C99.2985 5.98538 100.283 3.61719 100.791 2.39677L101.715 0.178008H103.408C104.339 0.178008 105.1 0.204014 105.1 0.235799C105.1 0.297511 105.026 0.475218 101.275 9.36265L98.837 15.1417L97.119 15.201L95.4011 15.2602L92.4999 8.3899C90.9042 4.61119 89.4736 1.21783 89.3208 0.848796L89.0426 0.178008H90.9758C92.1187 0.178008 92.9087 0.261599 92.9087 0.382754ZM44.6849 2.99883C44.6104 3.07437 44.5494 4.28179 44.5494 5.68198V8.22747H46.3846C49.2941 8.22747 50.4419 7.46503 50.4419 5.53234C50.4419 3.65496 49.1874 2.86116 46.2204 2.86116C45.4503 2.86116 44.7593 2.92308 44.6849 2.99883ZM79.1972 3.19098C76.9652 4.0209 75.7515 6.71643 76.4538 9.28483C76.7778 10.4698 78.112 11.853 79.3256 12.2625C82.458 13.3195 85.3817 11.1222 85.3817 7.71147C85.3817 4.28757 82.302 2.03661 79.1972 3.19098ZM73.8436 19.3017C74.2739 19.6973 74.3192 20.2414 73.9689 20.811C73.5882 21.4302 73.9192 21.5332 74.7293 21.0478C75.5853 20.5347 79.1745 18.9601 79.4878 18.9601C79.7881 18.9601 79.7544 19.6905 79.4419 19.9539C79.2992 20.074 78.3164 20.4948 77.2576 20.8888C73.3392 22.3472 73.2927 22.3759 72.5899 23.7712L71.9561 25.0287L72.4253 25.3953C72.6834 25.597 72.9859 25.7656 73.0977 25.7699C73.326 25.779 77.4315 28.1078 77.8149 28.446C78.1079 28.7043 77.962 29.2008 77.5455 29.3633C77.2714 29.47 75.0332 28.0238 72.7929 26.2923C72.0902 25.7491 71.8253 25.6428 71.6489 25.8331C71.3008 26.2085 70.3546 28.7666 70.3546 29.3323C70.3546 29.9864 70.1817 30.1364 69.7184 29.8846C69.1253 29.5622 69.2448 28.4091 70.0498 26.6859C70.4409 25.8488 70.761 25.0882 70.761 24.9959C70.761 24.9037 70.4818 24.6605 70.1404 24.4558C69.7991 24.251 69.5534 23.9757 69.5942 23.8438C69.6351 23.7119 70.2063 23.3109 70.8638 22.9526C72.3572 22.1386 72.7906 21.5423 72.9371 20.099C73.0591 18.8988 73.236 18.7432 73.8436 19.3017ZM97.664 20.1173C97.9544 20.8864 96.8199 23.6308 95.7534 24.7392C95.2029 25.3111 94.1279 27.1784 94.1279 27.5625C94.1279 27.6471 94.5623 27.2894 95.093 26.7676C96.1525 25.7262 96.7391 25.3584 97.3407 25.3584C98.0385 25.3584 98.2347 25.8271 97.9755 26.8733C97.8477 27.3885 97.7755 27.9074 97.8152 28.026C97.8546 28.1445 98.3256 27.8605 98.8618 27.3947C99.398 26.9288 99.8806 26.5924 99.9342 26.6469C100.077 26.7918 99.654 27.8351 99.4525 27.8351C99.358 27.8351 98.8994 28.1668 98.4333 28.572C97.7991 29.1234 97.4762 29.2735 97.1503 29.1684C96.747 29.0384 96.7238 28.9305 96.836 27.7092C96.9026 26.9837 96.8843 26.3903 96.7953 26.3903C96.7064 26.3903 96.0988 26.7707 95.4454 27.2357C94.381 27.9932 94.0039 28.3651 93.1763 29.4739C92.9876 29.7269 92.8825 29.7422 92.6856 29.5451C92.4873 29.3464 92.5021 29.121 92.7571 28.4615C93.0802 27.6262 92.9676 27.4044 92.466 27.8871C92.0574 28.2803 90.6618 29.1711 89.8245 29.5732C89.1259 29.9088 89.0304 29.91 88.3715 29.5924C87.5349 29.1891 87.3427 28.6351 87.7207 27.7162C88.1183 26.7499 89.5683 25.3941 90.3672 25.242C91.4037 25.0444 91.7912 25.1891 91.7912 25.774C91.7912 26.2314 91.716 26.281 91.0979 26.2302C90.1998 26.1565 89.0227 26.9344 88.5718 27.8995C88.3867 28.2958 88.2353 28.722 88.2353 28.8467C88.2353 29.6361 91.0211 28.34 92.8386 26.7049C93.6215 26.0005 94.1023 25.3072 94.7415 23.9609C95.7926 21.7468 96.9953 19.7898 97.3064 19.7875C97.4342 19.7865 97.5951 19.9349 97.664 20.1173ZM87.829 21.3458C87.829 21.9056 88.1216 21.9724 89.1991 21.6585C90.0167 21.4203 90.1772 21.6478 89.6613 22.314C89.3868 22.6686 89.121 22.799 88.8 22.7367C88.0145 22.5842 87.337 22.9982 86.4402 24.179C85.3848 25.5685 84.9975 27.276 85.5095 28.282C85.8367 28.9243 85.7201 29.7693 85.3226 29.6361C84.8309 29.4714 84.5617 28.5509 84.6299 27.2675C84.6679 26.5581 84.6716 25.9776 84.6387 25.9776C84.6056 25.9776 84.2248 26.3259 83.7926 26.7515C82.7903 27.7389 80.723 29.375 80.2601 29.5474C79.3065 29.9024 78.9829 28.787 79.6024 27.2807C79.7714 26.8698 79.8698 26.4927 79.8208 26.443C79.6619 26.2816 78.9713 26.591 78.5046 27.0326C78.254 27.2698 77.998 27.412 77.9356 27.3489C77.6833 27.0925 78.1154 26.5742 79.1812 25.8556C80.1132 25.2269 80.3583 25.1414 80.6131 25.3561C81.0042 25.6859 81.0001 26.0793 80.5929 27.2935C80.4127 27.8308 80.3125 28.3183 80.3705 28.3771C80.5503 28.5598 82.0198 27.5119 83.322 26.2721C84.6216 25.0349 85.7371 23.5774 85.5386 23.3759C85.4301 23.2657 82.0533 24.0981 81.2761 24.4267C81.005 24.5412 80.9205 24.4764 80.9205 24.1542C80.9205 23.9218 81.0199 23.6692 81.1414 23.5928C81.2629 23.5167 81.3179 23.2824 81.2639 23.0723C81.1529 22.6414 81.6042 22.1569 81.9275 22.36C82.0441 22.4333 82.1396 22.6269 82.1396 22.7906C82.1396 23.1689 82.1004 23.1714 84.3069 22.6552C86.0116 22.2564 86.2236 22.1512 86.8087 21.4112C87.4904 20.5495 87.829 20.5279 87.829 21.3458ZM70.9134 23.4224C70.2579 23.772 70.2081 24.0259 70.7384 24.314C71.0609 24.4894 71.1625 24.4236 71.3752 23.902C71.6916 23.1264 71.6158 23.0478 70.9134 23.4224ZM103.763 25.2772C104.389 25.5214 104.065 25.9586 102.459 27.0349C100.806 28.1424 100.443 28.6607 101.32 28.6607C101.937 28.6607 103.927 27.605 104.831 26.7986C105.21 26.4605 105.602 26.1839 105.702 26.1839C105.802 26.1839 106.037 26.0281 106.225 25.8376C106.668 25.3879 107.209 25.703 107.298 26.4628C107.371 27.0857 107.574 27.154 107.957 26.6849C108.238 26.341 109.622 25.5648 109.954 25.5648C110.062 25.5648 110.302 25.7181 110.487 25.9057C110.758 26.1817 110.796 26.4766 110.684 27.4537C110.515 28.9327 110.709 28.9872 112.009 27.8256C112.758 27.1555 112.936 27.0723 112.997 27.3643C113.082 27.7691 111.118 29.6927 110.62 29.6927C109.928 29.6927 109.57 29.0491 109.57 27.8031C109.57 27.1396 109.491 26.5967 109.395 26.5967C109.179 26.5967 108.426 27.1759 106.827 28.5709C106.157 29.1561 105.494 29.5938 105.354 29.5435C104.926 29.3891 105.071 28.3146 105.608 27.6663C106.588 26.4838 106.114 26.4764 104.894 27.6551C103.924 28.5924 102.241 29.4811 101.431 29.4842C100.848 29.4865 100.377 29.1695 100.064 28.5645C99.8261 28.1061 100.326 26.9119 101.119 26.0432C101.743 25.359 103.022 24.9885 103.763 25.2772ZM102.103 26.1817C101.495 26.5584 101.222 27.0095 101.603 27.0095C101.846 27.0095 103.2 25.7891 102.967 25.7802C102.855 25.7761 102.466 25.9567 102.103 26.1817Z" fill="white"/>
</svg>
