<svg width="22" height="20" viewBox="0 0 22 20" fill="none" xmlns="http://www.w3.org/2000/svg">
<path d="M1.34588 9.33003L6.23672 11.7675C6.42588 11.8609 6.64922 11.8542 6.83005 11.7484L11.1834 9.21753L8.54838 11.5525C8.41422 11.6717 8.33755 11.8417 8.33755 12.0209V17.7084C8.33755 18.3084 9.10338 18.5609 9.46255 18.0842L11.5767 15.2734L16.805 18.2509C17.1717 18.4617 17.6417 18.25 17.7267 17.8309L20.9876 1.58086C21.0851 1.09253 20.5992 0.694193 20.1475 0.875859L1.39755 8.18836C0.894217 8.38503 0.861717 9.08919 1.34588 9.33003ZM19.5375 2.45586L16.6717 16.7367L11.7176 13.915C11.4476 13.7609 11.1001 13.8292 10.9084 14.0825L9.58755 15.8384V12.3017L16.7134 5.98836C17.2776 5.48919 16.6292 4.60169 15.9851 4.98003L6.49338 10.4984L3.16672 8.84086L19.5375 2.45586Z" fill="white" stroke="white" stroke-width="0.3"/>
</svg>
