<svg width="20" height="22" viewBox="0 0 20 22" fill="none" xmlns="http://www.w3.org/2000/svg">
<path d="M19.2959 12.5775C19.8926 7.55502 19.0092 4.38419 17.4159 2.95002L17.4167 2.94919C14.8451 0.500021 6.16007 0.13752 3.0834 3.05919C1.70173 4.48835 1.21507 6.58585 1.16173 9.18252C1.1084 11.78 1.04507 16.6459 5.57923 17.9659H5.5834L5.57923 19.9817C5.57923 19.9817 5.5484 20.7984 6.07007 20.9625C6.66673 21.1559 6.93673 20.7767 8.79257 18.56C11.8959 18.8292 14.2792 18.2125 14.5501 18.1225C15.1767 17.9125 18.7226 17.4434 19.2959 12.5775ZM9.0984 17.1417C9.0984 17.1417 7.13423 19.5909 6.5234 20.2267C6.3234 20.4334 6.10423 20.4142 6.10757 20.0042C6.10757 19.735 6.12257 16.6575 6.12257 16.6575C2.2784 15.5559 2.50507 11.4125 2.54673 9.24502C2.5884 7.07669 2.98507 5.30085 4.15507 4.10502C6.85423 1.57419 14.4684 2.14002 16.4084 3.96335C18.7801 6.06585 17.9359 12.0059 17.9409 12.2084C17.4534 16.27 14.5801 16.5275 14.0517 16.7034C13.8259 16.7784 11.7301 17.3175 9.0984 17.1417Z" fill="white"/>
<path d="M10.1851 4.58085C9.86428 4.58085 9.86428 5.08085 10.1851 5.08502C12.6743 5.10419 14.7243 6.83919 14.7468 10.0217C14.7468 10.3575 15.2384 10.3534 15.2343 10.0175C15.2076 6.58835 12.9684 4.60002 10.1851 4.58085Z" fill="white"/>
<path d="M13.4592 9.49419C13.4517 9.82586 13.9426 9.84169 13.9467 9.50586C13.9876 7.61502 12.8217 6.05752 10.6309 5.89336C10.3101 5.87002 10.2767 6.37419 10.5967 6.39752C12.4967 6.54169 13.4976 7.83836 13.4592 9.49419Z" fill="white"/>
<path d="M12.9342 11.645C12.5225 11.4067 12.1033 11.555 11.93 11.7892L11.5675 12.2583C11.3833 12.4967 11.0392 12.465 11.0392 12.465C8.5275 11.8008 7.85583 9.1725 7.85583 9.1725C7.85583 9.1725 7.825 8.81667 8.055 8.62584L8.50833 8.25084C8.735 8.07084 8.87833 7.6375 8.6475 7.21167C8.03083 6.0975 7.61667 5.71334 7.40583 5.41834C7.18417 5.14084 6.85083 5.07834 6.50417 5.26584H6.49667C5.77584 5.6875 4.98667 6.47667 5.23917 7.28917C5.67 8.14584 6.46167 10.8767 8.985 12.94C10.1708 13.9158 12.0475 14.9158 12.8442 15.1467L12.8517 15.1583C13.6367 15.42 14.4 14.6 14.8075 13.8575V13.8517C14.9883 13.4925 14.9283 13.1525 14.6642 12.93C14.1958 12.4733 13.4892 11.9692 12.9342 11.645Z" fill="white"/>
<path d="M10.9742 7.75334C11.775 7.80001 12.1633 8.21834 12.205 9.07751C12.22 9.41335 12.7075 9.39001 12.6925 9.05418C12.6392 7.93251 12.0542 7.30751 11.0008 7.24918C10.68 7.23001 10.65 7.73418 10.9742 7.75334Z" fill="white"/>
<path d="M19.2959 12.5775C19.8926 7.55502 19.0092 4.38419 17.4159 2.95002L17.4167 2.94919C14.8451 0.500021 6.16007 0.13752 3.0834 3.05919C1.70173 4.48835 1.21507 6.58585 1.16173 9.18252C1.1084 11.78 1.04507 16.6459 5.57923 17.9659H5.5834L5.57923 19.9817C5.57923 19.9817 5.5484 20.7984 6.07007 20.9625C6.66673 21.1559 6.93673 20.7767 8.79257 18.56C11.8959 18.8292 14.2792 18.2125 14.5501 18.1225C15.1767 17.9125 18.7226 17.4434 19.2959 12.5775ZM9.0984 17.1417C9.0984 17.1417 7.13423 19.5909 6.5234 20.2267C6.3234 20.4334 6.10423 20.4142 6.10757 20.0042C6.10757 19.735 6.12257 16.6575 6.12257 16.6575C2.2784 15.5559 2.50507 11.4125 2.54673 9.24502C2.5884 7.07669 2.98507 5.30085 4.15507 4.10502C6.85423 1.57419 14.4684 2.14002 16.4084 3.96335C18.7801 6.06585 17.9359 12.0059 17.9409 12.2084C17.4534 16.27 14.5801 16.5275 14.0517 16.7034C13.8259 16.7784 11.7301 17.3175 9.0984 17.1417Z" stroke="white" stroke-width="0.3"/>
<path d="M10.1851 4.58085C9.86428 4.58085 9.86428 5.08085 10.1851 5.08502C12.6743 5.10419 14.7243 6.83919 14.7468 10.0217C14.7468 10.3575 15.2384 10.3534 15.2343 10.0175C15.2076 6.58835 12.9684 4.60002 10.1851 4.58085Z" stroke="white" stroke-width="0.3"/>
<path d="M13.4592 9.49419C13.4517 9.82586 13.9426 9.84169 13.9467 9.50586C13.9876 7.61502 12.8217 6.05752 10.6309 5.89336C10.3101 5.87002 10.2767 6.37419 10.5967 6.39752C12.4967 6.54169 13.4976 7.83836 13.4592 9.49419Z" stroke="white" stroke-width="0.3"/>
<path d="M12.9342 11.645C12.5225 11.4067 12.1033 11.555 11.93 11.7892L11.5675 12.2583C11.3833 12.4967 11.0392 12.465 11.0392 12.465C8.5275 11.8008 7.85583 9.1725 7.85583 9.1725C7.85583 9.1725 7.825 8.81667 8.055 8.62584L8.50833 8.25084C8.735 8.07084 8.87833 7.6375 8.6475 7.21167C8.03083 6.0975 7.61667 5.71334 7.40583 5.41834C7.18417 5.14084 6.85083 5.07834 6.50417 5.26584H6.49667C5.77584 5.6875 4.98667 6.47667 5.23917 7.28917C5.67 8.14584 6.46167 10.8767 8.985 12.94C10.1708 13.9158 12.0475 14.9158 12.8442 15.1467L12.8517 15.1583C13.6367 15.42 14.4 14.6 14.8075 13.8575V13.8517C14.9883 13.4925 14.9283 13.1525 14.6642 12.93C14.1958 12.4733 13.4892 11.9692 12.9342 11.645Z" stroke="white" stroke-width="0.3"/>
<path d="M10.9742 7.75334C11.775 7.80001 12.1633 8.21834 12.205 9.07751C12.22 9.41335 12.7075 9.39001 12.6925 9.05418C12.6392 7.93251 12.0542 7.30751 11.0008 7.24918C10.68 7.23001 10.65 7.73418 10.9742 7.75334Z" stroke="white" stroke-width="0.3"/>
</svg>
