<svg width="20" height="20" viewBox="0 0 20 20" fill="none" xmlns="http://www.w3.org/2000/svg">
<g clip-path="url(#clip0)">
<path d="M14.589 11.9225L14.5815 11.985C12.749 11.0717 12.5574 10.95 12.3207 11.305C12.1565 11.5508 11.6782 12.1083 11.534 12.2733C11.3882 12.4358 11.2432 12.4483 10.9957 12.3358C10.7457 12.2108 9.9432 11.9483 8.9932 11.0983C8.2532 10.4358 7.75654 9.62333 7.60987 9.37333C7.3657 8.95167 7.87654 8.89167 8.34154 8.01167C8.42487 7.83667 8.38237 7.69917 8.3207 7.575C8.2582 7.45 7.7607 6.225 7.55237 5.73667C7.35237 5.25 7.14654 5.31167 6.99237 5.31167C6.51237 5.27 6.16154 5.27667 5.85237 5.59833C4.50737 7.07667 4.84654 8.60166 5.99737 10.2233C8.25904 13.1833 9.46404 13.7283 11.6674 14.485C12.2624 14.6742 12.8049 14.6475 13.234 14.5858C13.7124 14.51 14.7065 13.985 14.914 13.3975C15.1265 12.81 15.1265 12.3225 15.064 12.21C15.0024 12.0975 14.839 12.035 14.589 11.9225Z" fill="white"/>
<path d="M17.1 2.87401C10.6925 -3.32016 0.0883333 1.17234 0.0841667 9.91068C0.0841667 11.6574 0.541667 13.3607 1.41333 14.8649L0 19.9999L5.27917 18.6232C11.8667 22.1815 19.9967 17.4565 20 9.91568C20 7.26902 18.9667 4.77818 17.0875 2.90651L17.1 2.87401ZM18.335 9.88819C18.33 16.249 11.3475 20.2215 5.825 16.9749L5.525 16.7965L2.4 17.609L3.2375 14.5715L3.03833 14.259C-0.398333 8.78818 3.55 1.63818 10.06 1.63818C12.2717 1.63818 14.3475 2.50068 15.9108 4.06318C17.4733 5.61235 18.335 7.68818 18.335 9.88819Z" fill="white"/>
</g>
<defs>
<clipPath id="clip0">
<rect width="20" height="20" fill="white"/>
</clipPath>
</defs>
</svg>
